<svg xmlns="http://www.w3.org/2000/svg" width="150" height="150"><style>.B{fill:#000102}</style><path fill="#04DCEF" d="M59.414 0h60.469L120 29.063c.316.316.566.262.996.266l.328-.004h.348l1.156-.004h.828l1.785-.008 2.586-.004 4.195-.008h.254l2.039-.004 1.777-.004h.254l4.18-.008 2.805-.008 1.746-.004h.813l1.105-.004.324-.004c1.402.008 1.402.008 1.777.383a6.72 6.72 0 0 1 .016.488l.004.316v.73l.004 1.254.004.895.008 1.93.008 2.789.016 4.523.016 4.398v.273l.004 1.355.039 11.281c-.59.156-1.176.133-1.777.125h-.367c-.406 0-.812-.004-1.219-.004L145.18 60l-1.883-.008-2.719-.012-4.41-.02-4.285-.023h-.27c-.441 0-.883-.004-1.324-.004l-10.992-.051c-.133-.27-.133-.422-.133-.723V58.14l.004-1.219v-5.457l.004-4.402v-5.863l.008-10.965h-.352l-.117-.117v.117H60.117v29.18H60v-.457l.008-10.734v-5.844l.004-4.371v-4.761l.004-.848V30.32c.008-.207.008-.207-.133-.32v29.766l19.219-.02 2.727-.004h1.824l2.324-.004h2.007l.336-.004h.586c.273.031.273.031.977.266v29.414h.234v.352h.453l10.617-.02h1.571l4.215-.008 4.324-.004 2.664-.008h2.047l.84-.004h1.145l.336-.004.313.004h.266c.273.043.273.043.977.395v29.766c-.789.395-.789.395-1.242.395l-.312.004-.336-.004h-.359c-.402 0-.801 0-1.203-.004h-.871c-.699 0-1.402 0-2.102-.004-.809 0-1.621 0-2.434-.004-2.141 0-4.277-.004-6.418-.008l-14.488-.023V150H90v-.465l.008-10.949v-5.962l.004-4.457v-4.855l.004-.871v-2.117c.008-.211.008-.211-.133-.324v30H29.766l-.117-29.297c-.375-.383-.375-.383-.852-.395l-.312-.004h-.344c-.117 0-.238 0-.359-.004h-1.215c-.293 0-.586-.004-.879-.004l-2.125-.004c-.816 0-1.633-.004-2.453-.008l-6.484-.016L0 120.234V89.766l14.48-.008 4.574-.004h6.817l.848-.004h2.056c.371.02.742.078 1.109.133v29.531h.234l.117.234 59.063.117V90.234h-.469l-.117-.117v.117l-10.859.012h-1.541l-4.133.004-4.242.008h-2.379l-2.242.004h-1.945l-.332.004h-.563c-.387-.051-.656-.227-.973-.441-.324-.457-.27-.895-.266-1.441v-.355l.004-1.187V83.92l.004-2.41.008-4.301.008-4.18v-1.293l.004-3.977.004-1.203.004-2.742.004-.828.004-1.133v-.907c.016-.25.066-.473.133-.711h-.457l-10.723-.02-1.32-.004h-.262l-4.258-.008-4.363-.008-2.695-.008c-.687 0-1.375 0-2.062-.004l-.848-.004H30.93c-.152 0-.152 0-.312-.004h-.27c-.23-.059-.23-.059-.434-.262-.164-.293-.191-.457-.191-.789l-.004-.312.004-.348-.004-.367.004-1.227v-5.504l.004-4.437v-4.312l.004-4.691v-2.48l.004-2.336v-2.961c.031-.266.031-.266.266-.852l29.18-.117c.133-.266.133-.414.133-.707v-.305l-.004-.332v-2.379l-.004-1.82v-2.633l-.004-4.273v-.258l-.004-2.074-.004-1.816v-.258l-.004-4.258V5.441l-.004-2.012V1.476l-.004-.332V.578c.016-.227.016-.227.133-.578zm59.414 119.883V120h.586v-.117zm0 0"/><g fill="#05DCEF"><path d="M59.414 0h60.469L120 29.063c.316.316.566.262.996.266l.328-.004h.348l1.156-.004h.828l1.785-.008 2.586-.004 4.195-.008h.254l2.039-.004 1.777-.004h.254l4.18-.008 2.805-.008 1.746-.004h.813l1.105-.004.324-.004c1.402.008 1.402.008 1.777.383a6.72 6.72 0 0 1 .016.488l.004.316v.73l.004 1.254.004.895.008 1.93.008 2.789.016 4.523.016 4.398v.273l.004 1.355.039 11.281c-.59.156-1.176.133-1.777.125h-.367c-.406 0-.812-.004-1.219-.004L145.18 60l-1.883-.008-2.719-.012-4.41-.02-4.285-.023h-.27c-.441 0-.883-.004-1.324-.004l-10.992-.051c-.133-.27-.133-.422-.133-.723V58.14l.004-1.219v-5.457l.004-4.402v-5.863l.008-10.965h-.352l-.117-.117v.117H60.117v29.18H60v-.457l.008-10.734v-5.844l.004-4.371v-4.761l.004-.848V30.32c.008-.207.008-.207-.133-.32v29.766l19.219-.02 2.727-.004h1.824l2.324-.004h2.007l.336-.004h.586c.273.031.273.031.977.266v29.414h.234v.352h.453l10.617-.02h1.571l4.215-.008 4.324-.004 2.664-.008h2.047l.84-.004h1.145l.336-.004.313.004h.266c.273.043.273.043.977.395v29.766c-.789.395-.789.395-1.242.395l-.312.004-.336-.004h-.359c-.402 0-.801 0-1.203-.004h-.871c-.699 0-1.402 0-2.102-.004-.809 0-1.621 0-2.434-.004-2.141 0-4.277-.004-6.418-.008l-14.488-.023V150H90v-.465l.008-10.949v-5.962l.004-4.457v-4.855l.004-.871v-2.117c.008-.211.008-.211-.133-.324v30h-.586v-.445l-.039-10.43-.004-1.281v-.262l-.016-4.137-.016-4.246-.008-2.387-.008-2.246-.004-.824-.004-1.125v-.328a11.486 11.486 0 0 0-.129-1.719c-.008-.219-.008-.219.152-.523l.227-.223a12.5 12.5 0 0 1 .227-.23c.32-.277.512-.312.926-.312h1.008l1.203.004h5.391l4.348.004h5.794l10.836.008c.129-.625.133-1.227.125-1.863v-.355l-.004-1.168-.004-.84-.012-2.039-.008-2.375-.02-4.234-.023-4.109v-.258l-.004-1.27-.051-10.551h-.453l-10.668-.016c-.437 0-.875 0-1.312-.004h-.266c-1.41 0-2.82-.004-4.23-.004-1.449 0-2.898-.004-4.344-.008-.895 0-1.789-.004-2.68 0a358.83 358.83 0 0 1-2.055-.008h-.844c-.383 0-.766 0-1.148-.004l-.34.004c-.535-.008-.762-.016-1.191-.359l-.234-.305-.234-.234c-.031-.211-.031-.211-.031-.477v-.301l.004-.336-.004-.355.004-1.184v-.844l.004-1.824V81.34l.008-4.277.004-4.156v-1.543l.012-10.66-.238.027c-1.324.121-2.645.105-3.973.102h-.809c-.578 0-1.156-.004-1.738-.004-.914 0-1.828 0-2.742-.004h-4.086l-1.73-.004c-.66 0-1.316 0-1.98-.004h-.246c-1.355 0-2.711-.004-4.066-.004h-2.727l-1.691-.004h-1.859l-.316-.004c-.504-.016-.504-.016-.977.133-.449 1.348-.25 3.027-.25 4.43l-.004.77v3.367l-.004 4.52v4.215l-.004 3.621v4.187l-.004.746v1.317c.004.457.008.68.266 1.07.598.16 1.219.133 1.836.129h.344l1.141-.004.816-.004 1.758-.008 2.785-.004.949-.004h.242l2.707-.004.25-.004 4.008-.012 4.121-.008 2.309-.008 2.176-.004.797-.004h1.09l.32-.004c.789.004 1.309.188 1.883.762.07.586 0 1.184-.117 1.758h-.117v-1.523h-.469l-.117-.117v.117l-10.859.012h-1.545l-4.133.004-4.242.008h-2.379l-2.242.004h-1.945l-.332.004h-.563c-.387-.051-.656-.227-.973-.441-.324-.457-.27-.895-.266-1.441v-.355l.004-1.187v-2.922l.004-2.41.008-4.301.008-4.18v-1.293l.004-3.977.004-1.203.004-2.742.004-.828.004-1.133v-.907c.016-.25.066-.473.133-.711h-.457l-10.723-.02-1.32-.004h-.262l-4.258-.008-4.363-.008-2.695-.008c-.687 0-1.375 0-2.062-.004l-.848-.004H30.93c-.152 0-.152 0-.312-.004h-.27c-.23-.059-.23-.059-.434-.262-.164-.293-.191-.457-.191-.789l-.004-.312.004-.348-.004-.367.004-1.227v-5.504l.004-4.437v-4.312l.004-4.691v-2.48l.004-2.336V30.15c.031-.266.031-.266.266-.852l29.18-.117c.133-.266.133-.414.133-.707v-.305l-.004-.332v-2.379l-.004-1.82v-2.633l-.004-4.273v-.258l-.004-2.074-.004-1.816v-.258l-.004-4.258V5.441l-.004-2.012V1.476l-.004-.332V.578c.016-.227.016-.227.133-.578zm59.414 119.883V120h.586v-.117zm0 0"/><path d="M59.18 30.117c.113.668.133 1.313.133 1.988v.352l.004 1.164v.832l.004 2.5v1.176l.004 3.91v1.266l.008 4.09.004 4.199v2.355l.004 2.215v1.922l.004.328-.004.297v.258c-.043.211-.043.211-.395.445-.227.027-.227.027-.496.027h-.305c-.113 0-.223 0-.34-.004h-.355c-.398 0-.797-.004-1.195-.008H55.4l-2.086-.008-2.422-.016-4.328-.02-4.195-.02h-.524l-4.777-.02-1.691-.012c-.758 0-1.516-.004-2.273-.008l-.84-.004-1.137-.008h-.34c-.098 0-.203-.004-.305-.004h-.266c-.215-.016-.215-.016-.449-.133l-.023-11-.004-1.297v-.262l-.008-4.187-.008-4.293-.008-2.652-.004-2.031v-1.969l-.008-.336c.008-.73.008-.73.25-1.043.383-.148.703-.152 1.113-.148l.254-.004.848.004h.605l1.313.004 2.086.008 3.328.008 6.246.016 1.418.004 8.539-.094a17.53 17.53 0 0 1 3.477.211zm0 0"/></g><path fill="#00E0EA" d="M59.297.352h.234v.453l.031 10.641.008 1.313v.262l.012 4.223.012 4.332.008 2.672.008 2.051v.84l.008 1.145v.919c.016.246.016.246.266.449a12.84 12.84 0 0 0 .949.031h1.313l.73.004 2.008.004 2.164.004 3.754.004 3.941.004.246.004h1.242l8.805.012 8.555.012a6.02 6.02 0 0 1 .266.004l2.648.004 5.391.008h.25l16.566.023v.469H60.117v29.18H60v-.457l.008-10.734v-5.844l.004-4.371v-4.761l.004-.848v-2.079c.008-.207.008-.207-.133-.32v29.766l19.219-.02 2.727-.004h1.824l2.324-.004h2.007l.336-.004h.586c.273.031.273.031.977.266v29.414h.234v.352h.453l10.617-.02h1.571l4.215-.008 4.324-.004 2.664-.008h2.047l.84-.004h1.145l.336-.004.313.004h.266c.273.043.273.043.977.395v29.766c-.789.395-.789.395-1.242.395l-.312.004-.336-.004h-.359c-.402 0-.801 0-1.203-.004h-.871c-.699 0-1.402 0-2.102-.004-.809 0-1.621 0-2.434-.004-2.141 0-4.277-.004-6.418-.008l-14.488-.023V150H90v-.465l.008-10.949v-5.962l.004-4.457v-4.855l.004-.871v-2.117c.008-.211.008-.211-.133-.324v30h-.586v-.445l-.039-10.43-.004-1.281v-.262l-.016-4.137-.016-4.246-.008-2.387-.008-2.246-.004-.824-.004-1.125v-.328a11.486 11.486 0 0 0-.129-1.719c-.008-.219-.008-.219.152-.523l.227-.223a12.5 12.5 0 0 1 .227-.23c.32-.277.512-.312.926-.312h1.008l1.203.004h5.391l4.348.004h5.794l10.836.008c.129-.625.133-1.227.125-1.863v-.355l-.004-1.168-.004-.84-.012-2.039-.008-2.375-.02-4.234-.023-4.109v-.258l-.004-1.27-.051-10.551h-.453l-10.668-.016c-.437 0-.875 0-1.312-.004h-.266c-1.41 0-2.82-.004-4.23-.004-1.449 0-2.898-.004-4.344-.008-.895 0-1.789-.004-2.68 0a358.83 358.83 0 0 1-2.055-.008h-.844c-.383 0-.766 0-1.148-.004l-.34.004c-.535-.008-.762-.016-1.191-.359l-.234-.305-.234-.234c-.031-.211-.031-.211-.031-.477v-.301l.004-.336-.004-.355.004-1.184v-.844l.004-1.824V81.34l.008-4.277.004-4.156v-1.543l.012-10.66-.238.027c-1.324.121-2.645.105-3.973.102h-.809c-.578 0-1.156-.004-1.738-.004-.914 0-1.828 0-2.742-.004h-4.086l-1.73-.004c-.66 0-1.316 0-1.98-.004h-.246c-1.355 0-2.711-.004-4.066-.004h-2.727l-1.691-.004h-1.859l-.316-.004c-.504-.016-.504-.016-.977.133-.449 1.348-.25 3.027-.25 4.43l-.004.77v3.367l-.004 4.52v4.215l-.004 3.621v4.187l-.004.746v1.317c.004.457.008.68.266 1.07.598.16 1.219.133 1.836.129h.344l1.141-.004.816-.004 1.758-.008 2.785-.004.949-.004h.242l2.707-.004.25-.004 4.008-.012 4.121-.008 2.309-.008 2.176-.004.797-.004h1.09l.32-.004c.789.004 1.309.188 1.883.762.07.586 0 1.184-.117 1.758h-.117v-1.523h-.469l-.117-.117v.117l-10.859.012h-1.545l-4.133.004-4.242.008h-2.379l-2.242.004h-1.945l-.332.004h-.563c-.387-.051-.656-.227-.973-.441-.324-.457-.27-.895-.266-1.441v-.355l.004-1.187v-2.922l.004-2.41.008-4.301.008-4.18v-1.293l.004-3.977.004-1.203.004-2.742.004-.828.004-1.133v-.907c.016-.25.066-.473.133-.711h-.457l-10.723-.02-1.32-.004h-.262l-4.258-.008-4.363-.008-2.695-.008c-.687 0-1.375 0-2.062-.004l-.848-.004H30.93c-.75-.008-.75-.008-1.062-.27-.102-.262-.102-.262-.102-.73l.453.004 10.688.047 1.313.004.266.004 4.242.02 4.348.02 2.684.012 2.055.008.848.004 1.148.004.344.004h.309l.27.004c.227-.004.227-.004.449-.133V30.117l-2.898-.102-.578.016-.312.012-8.578.078h-1.066l-6.246-.016c-1.227 0-2.453-.004-3.68-.004-.691 0-1.383-.004-2.074-.008h-1.277c-.199 0-.398-.004-.594-.004h-1.262c-.355.023-.551.074-.848.262.059-.367.117-.703.234-1.055l29.18-.117c.133-.266.133-.414.133-.711v-.992l-.004-1.184v-5.305l-.004-4.277v-5.699zm59.531 119.531V120h.586v-.117zm0 0"/><path fill="#00F1FB" d="m0 89.766 11.066-.008h5.778l4.324-.004h4.711l.836-.004h2.06c.371.02.742.078 1.109.133v29.531h.234l.117.234 58.711.117-.117.352-16.707.043h-.246l-5.371.012-2.633.008h-.266l-8.5.023-8.73.02-1.23.004H44.9l-3.91.012-3.926.008-2.129.008-1.949.004-.707.004h-.953l-.281.004c-.656-.004-.965-.121-1.477-.5-.387-.504-.352-.91-.344-1.531l-.004-.359v-1.207l-.004-.875v-2.113l-.004-2.441-.008-6.449-.023-14.555L0 90.117v-.352zm0 0"/><path fill="#00F1FA" d="M119.297 0h.586v.453l.031 10.641.008 1.313v.262l.012 4.223.012 4.332.008 2.672.008 2.051v.84l.008 1.145v.919c.016.246.016.246.266.449a14.5 14.5 0 0 0 1.09.027h.348l1.156-.004h.828l1.785-.008 2.586-.004 4.195-.008h.254l2.039-.004 1.777-.004h.254l4.18-.008 2.805-.008 1.746-.004h.813l1.105-.004.324-.004c1.402.008 1.402.008 1.777.383a14.65 14.65 0 0 1 0 .586l-.215-.027c-1.293-.129-2.586-.098-3.887-.09l-.816.004-1.754.008-2.77.012-.473.004h-.957l-2.457.008-.246.004-3.996.02-4.105.016-2.305.008-2.164.008-.793.008h-1.086l-.316.008a2.05 2.05 0 0 1-1.602-.672c-.324-.465-.301-.914-.285-1.465v-.363l.012-1.207.004-.867.016-1.863.023-2.695.035-4.371.035-4.246v-.266l.012-1.312.09-10.895zm0 0"/><path fill="#00EFFA" d="M59.297 60.703h.117l.117 2.109h.117l.125 4.418v.707l-.004 1.516-.004 2.395-.012 6.801-.004 3.766-.008 2.379v1.477l-.004.684v.934l-.004.277c.004.441.016.637.266 1.016.598.16 1.219.133 1.836.129h.344l1.141-.004.816-.004 1.758-.008 2.785-.004.949-.004h.242l2.707-.004h.25l4.008-.016 4.121-.008 2.309-.008 2.176-.004.797-.004h1.09l.32-.004c.789.004 1.309.188 1.883.762.07.586 0 1.184-.117 1.758h-.117v-1.523h-.469l-.117-.117v.117l-10.859.012h-1.54l-4.133.004-4.242.008h-2.379l-2.242.004h-1.945l-.332.004h-.563c-.387-.047-.656-.227-.973-.441-.324-.457-.27-.895-.262-1.445l-.004-.355.004-1.191v-.852l.004-1.836.008-2.656.008-4.309.008-4.187v-.258l.004-1.293.023-10.738zm0 0"/><path fill="#00F2FB" d="M59.414 0h.469l-.059 2.25-.074 3.344v18.898c-.086 2.328-.086 2.328.367 4.57.18.18.355.141.605.152l.316.016.34.016.352.012 3.5.051h.695l1.883-.004h2.043l3.523-.008 5.336-.004h2.39l5.656-.008h.25l5.773-.004h.254l2.008-.004 8.273-.008 5.324-.008 3.484-.004h3.848l.668-.004h.902l.262-.004c.523.008.84.09 1.258.398l.277.199c.191.27.191.27.168.73l-.094.477-.066.352-.051.234h-.117v-1.406h-.352l-.117-.469h-.379l-16.434.016h-5.652l-2.648.004h-.27l-8.551.008-8.785.004H74.75l-.246.004-3.934.004h-3.953l-2.141.004h-3.633l-.281.004c-.617-.008-.617-.008-.914-.195-.145-.254-.16-.414-.16-.707l-.004-.312v-.344l-.004-.363v-1.215l-.004-.871-.004-1.875-.008-2.711-.012-4.398-.008-4.273v-.266l-.004-1.32zm0 0"/><path d="M60 29.883h58.711v.352H60.117v29.18H60zm0 0" class="B"/><path fill="#00EFF9" d="M149.18 31.992h.117l.117 27.891c-.414.082-.711.133-1.117.129h-.316c-.172 0-.172 0-.344-.004h-.367c-.406 0-.812-.004-1.219-.004L145.18 60l-1.883-.008-2.719-.012-4.41-.02-4.285-.023h-.27c-.441 0-.883-.004-1.324-.004l-10.992-.051-.117-.82.234.117.484.016.305.004h.703l1.203.008.859.004 2.098.008 1.707.008h.734l4.621.02 3.965.016 4.605.02h.488l.246.004 1.703.004 2.289.012.844.004 1.148.004h.34c.488 0 .945-.004 1.422-.129l-.012-.363c-.156-5.137-.098-10.277-.062-15.418l.023-3.742.051-7.664zm0 0"/><path d="m90 119.883 14.379-.008 4.543-.004h6.766l.84-.004h1.473c.484 0 .938.008 1.414.133-.234.234-.234.234-.449.266h-.575c-.113 0-.227 0-.344-.004l-.359.004c-.398 0-.801-.004-1.203-.004h-.871c-.703 0-1.406 0-2.109-.004h-2.434l-6.437-.008-14.516-.016V150H90zm0 0" class="B"/><path fill="#02E6F4" d="M59.297.352h.234l.008 11.102v5.798l.004 4.336v4.723l.004.844v1.485c-.004.766-.004.766-.133.895l-1.043.016h-.332c-.375 0-.75 0-1.125-.004H51.66c-1.273 0-2.547-.004-3.82-.004h-5.398l-10.098-.008v-.234l26.836-.117c.133-.266.133-.414.133-.711v-.992l-.004-1.184v-5.305l-.004-4.277v-5.699zm0 0"/><path d="M60.738 89.867h.988l1.176.004h5.278l4.258.004h5.668l10.605.008v.352l-10.859.012h-1.54l-4.133.008-4.242.004h-2.379l-2.242.004h-1.945l-.332.004c-.148 0-.148 0-.301-.004h-.262c-.277-.031-.469-.125-.711-.262a3.4 3.4 0 0 1 .973-.133zm0 0" class="B"/><path fill="#00F3FC" d="m28.109 119.871.379-.012.301-.012c.359.047.57.176.859.387.234.352.234.352.191.609l-.074.211-.102-.285c-.102-.316-.102-.316-.367-.418l-.488-.016c-.102 0-.203-.004-.309-.004h-.707l-1.211-.004c-.289 0-.578-.004-.867-.004l-1.867-.008a621.77 621.77 0 0 1-2.703-.008l-4.383-.016-4.258-.016h-.266l-1.316-.004L0 120.234v-.117c.559-.145 1.102-.137 1.676-.137h.332l1.109-.004.793-.004 2.156-.008 2.258-.008 3.793-.016 3.898-.016h.242l.965-.004 7.406-.027.773-.004.367-.004h1.019l1.32-.016zm0 0"/><path fill="#05D9EC" d="M119.766 0h.117v.453l.031 10.637.008 1.309v.262l.012 4.223.012 4.328.008 2.672.008 2.047v.844l.008 1.145v.915c.02.27.02.27.266.582l-.234.117-.234-.117V0zm0 0"/><path fill="#0D474C" d="M149.414 30h.117v29.531h-.117zm0 0"/><path d="M119.531 60h29.297v.117h-29.297zM30 90.117h.117v29.18H30zm60-29.883h.117v29.063H90zm0 0" class="B"/></svg>
